<svg width="320" height="221" viewBox="0 0 320 221" fill="none" xmlns="http://www.w3.org/2000/svg">
<circle cx="160" cy="113.75" r="72.5" fill="#FF58D0"/>
<path d="M123.5 135.25C126.592 142.583 137.237 157.25 161.5 157.25C185.763 157.25 196.646 142.463 199.5 135.25" stroke="black" stroke-width="3" stroke-linecap="round" stroke-linejoin="round"/>
<path d="M212.5 78.25H108.5C100.768 78.25 94.5 84.518 94.5 92.25V113.25C94.5 120.982 100.768 127.25 108.5 127.25H138.733C140.547 127.25 142.263 126.43 143.402 125.018L155.68 109.804C158.036 106.885 162.462 106.819 164.904 109.667L178.184 125.155C179.324 126.485 180.988 127.25 182.739 127.25H212.5C220.232 127.25 226.5 120.982 226.5 113.25V92.25C226.5 84.518 220.232 78.25 212.5 78.25Z" fill="#030303" stroke="black" stroke-width="3" stroke-linecap="round" stroke-linejoin="round"/>
<path d="M142.706 101.18L133.606 90.6796C130.238 86.7942 132.998 80.75 138.14 80.75H172.943C175.394 80.75 177.598 82.2405 178.511 84.5149L191.653 117.255C194.191 123.577 185.901 128.566 181.503 123.363L166.298 105.376C165.158 104.028 163.481 103.25 161.716 103.25H147.24C145.5 103.25 143.845 102.495 142.706 101.18Z" fill="white"/>
</svg>
