<svg width="321" height="220" viewBox="0 0 321 220" fill="none" xmlns="http://www.w3.org/2000/svg">
<rect x="37.5" y="32" width="216" height="121" fill="#FF58D0"/>
<rect x="155" y="59.5" width="130" height="153" rx="8.5" fill="white" stroke="black" stroke-width="3"/>
<path d="M227.256 104.296L229.477 103L227.256 101.704L215.256 94.7043L213 93.3884L213 96L213 110L213 112.612L215.256 111.296L227.256 104.296Z" stroke="black" stroke-width="3"/>
<rect x="78" y="83.5" width="62" height="92" rx="8.5" fill="white" stroke="black" stroke-width="3"/>
<line x1="84.5" y1="151" x2="116.5" y2="151" stroke="black" stroke-width="4"/>
<line x1="84.5" y1="162" x2="116.5" y2="162" stroke="black" stroke-width="4"/>
<line x1="121.5" y1="151" x2="133.5" y2="151" stroke="black" stroke-width="4"/>
<line x1="121.5" y1="162" x2="133.5" y2="162" stroke="black" stroke-width="4"/>
<path d="M116.256 118.296L118.477 117L116.256 115.704L104.256 108.704L102 107.388L102 110L102 124L102 126.612L104.256 125.296L116.256 118.296Z" stroke="black" stroke-width="3"/>
<rect x="86" y="93.5" width="46" height="47" stroke="black" stroke-width="3"/>
<rect x="173" y="78.5" width="94" height="49" stroke="black" stroke-width="3"/>
<line x1="171.5" y1="142" x2="235.5" y2="142" stroke="black" stroke-width="4"/>
<line x1="171.5" y1="155" x2="235.5" y2="155" stroke="black" stroke-width="4"/>
<line x1="171.5" y1="168" x2="235.5" y2="168" stroke="black" stroke-width="4"/>
<line x1="171.5" y1="181" x2="235.5" y2="181" stroke="black" stroke-width="4"/>
<line x1="171.5" y1="194" x2="235.5" y2="194" stroke="black" stroke-width="4"/>
<line x1="245.5" y1="142" x2="268.5" y2="142" stroke="black" stroke-width="4"/>
<line x1="245.5" y1="155" x2="268.5" y2="155" stroke="black" stroke-width="4"/>
<line x1="245.5" y1="168" x2="268.5" y2="168" stroke="black" stroke-width="4"/>
<line x1="245.5" y1="181" x2="268.5" y2="181" stroke="black" stroke-width="4"/>
<line x1="245.5" y1="194" x2="268.5" y2="194" stroke="black" stroke-width="4"/>
<path d="M63.5 60.343C63.5 64.0229 65.9538 66.2202 69.4257 66.5644V69H70.8875V66.5909C74.1506 66.4585 76.5 64.7112 76.5 61.7726C76.5 59.0987 74.9859 57.8279 72.01 57.2455L70.8875 57.0337V51.1829C72.8715 51.58 74.0723 53.0626 74.1506 55.3923L76.1606 55.2864C76.1345 51.9242 74.2028 49.7798 70.8875 49.3827V47H69.4257V49.3032C66.0321 49.4091 63.9699 51.2888 63.9699 54.1215C63.9699 56.716 65.6406 58.1191 68.0422 58.5692L69.4257 58.8604V64.7906C67.2068 64.4464 65.6145 62.8845 65.51 60.2106L63.5 60.343ZM71.2791 59.2046C73.3936 59.6282 74.3594 60.3959 74.3594 61.9314C74.3594 63.6522 72.9759 64.7377 70.8875 64.87V59.1252L71.2791 59.2046ZM66.0843 53.9892C66.0843 52.1625 67.259 51.13 69.4257 51.0505V56.7425L69.0863 56.6631C67.2068 56.2924 66.0843 55.657 66.0843 53.9892Z" fill="white"/>
<path d="M121.5 59.343C121.5 63.0229 123.954 65.2202 127.426 65.5644V68H128.888V65.5909C132.151 65.4585 134.5 63.7112 134.5 60.7726C134.5 58.0987 132.986 56.8279 130.01 56.2455L128.888 56.0337V50.1829C130.871 50.58 132.072 52.0626 132.151 54.3923L134.161 54.2864C134.135 50.9242 132.203 48.7798 128.888 48.3827V46H127.426V48.3032C124.032 48.4091 121.97 50.2888 121.97 53.1215C121.97 55.716 123.641 57.1191 126.042 57.5692L127.426 57.8604V63.7906C125.207 63.4464 123.614 61.8845 123.51 59.2106L121.5 59.343ZM129.279 58.2046C131.394 58.6282 132.359 59.3959 132.359 60.9314C132.359 62.6522 130.976 63.7377 128.888 63.87V58.1252L129.279 58.2046ZM124.084 52.9892C124.084 51.1625 125.259 50.13 127.426 50.0505V55.7425L127.086 55.6631C125.207 55.2924 124.084 54.657 124.084 52.9892Z" fill="white"/>
<path d="M34.5 101.195C34.5 106.213 37.8976 109.209 42.7048 109.679V113H44.7289V109.715C49.247 109.534 52.5 107.152 52.5 103.144C52.5 99.4982 50.4036 97.7653 46.2831 96.9711L44.7289 96.6823V88.704C47.4759 89.2455 49.1386 91.2671 49.247 94.444L52.0301 94.2996C51.994 89.7148 49.3193 86.7906 44.7289 86.2491V83H42.7048V86.1408C38.006 86.2852 35.1506 88.8484 35.1506 92.7112C35.1506 96.2491 37.4639 98.1625 40.7892 98.7762L42.7048 99.1733V107.26C39.6325 106.791 37.4277 104.661 37.2831 101.014L34.5 101.195ZM45.2711 99.6426C48.1988 100.22 49.5361 101.267 49.5361 103.361C49.5361 105.708 47.6205 107.188 44.7289 107.368V99.5343L45.2711 99.6426ZM38.0783 92.5307C38.0783 90.0397 39.7048 88.6318 42.7048 88.5235V96.2852L42.2349 96.1769C39.6325 95.6715 38.0783 94.8051 38.0783 92.5307Z" fill="white"/>
<path d="M92.5 54.8845C92.5 57.059 94.01 58.3574 96.1466 58.5608V60H97.0462V58.5764C99.0542 58.4982 100.5 57.4657 100.5 55.7292C100.5 54.1492 99.5683 53.3983 97.7369 53.0542L97.0462 52.929V49.4717C98.2671 49.7064 99.006 50.5824 99.0542 51.9591L100.291 51.8965C100.275 49.9097 99.0863 48.6426 97.0462 48.4079V47H96.1466V48.361C94.0582 48.4236 92.7892 49.5343 92.7892 51.2082C92.7892 52.7413 93.8173 53.5704 95.2952 53.8363L96.1466 54.0084V57.5126C94.7811 57.3093 93.8012 56.3863 93.7369 54.8063L92.5 54.8845ZM97.2871 54.2118C98.5884 54.4621 99.1827 54.9158 99.1827 55.8231C99.1827 56.84 98.3313 57.4813 97.0462 57.5596V54.1649L97.2871 54.2118ZM94.0904 51.13C94.0904 50.0505 94.8133 49.4404 96.1466 49.3935V52.7569L95.9378 52.71C94.7811 52.491 94.0904 52.1155 94.0904 51.13Z" fill="white"/>
</svg>
