<svg width="321" height="220" viewBox="0 0 321 220" fill="none" xmlns="http://www.w3.org/2000/svg">
<path d="M272.75 135H285.75C290.168 135 293.75 138.582 293.75 143V150.686C293.75 152.808 292.907 154.843 291.407 156.343L283.25 164.5" stroke="white" stroke-width="3" stroke-linecap="round" stroke-linejoin="round"/>
<rect x="27.25" y="33" width="216" height="121" fill="#2ADEA7"/>
<circle cx="159.75" cy="93.5" r="56" fill="white" stroke="black" stroke-width="3"/>
<path d="M151.75 98C152.75 98 141.417 114.167 134.75 121C135.083 124.833 142.15 126.5 151.75 126.5L157.25 140C159.917 142.167 166.55 141.2 171.75 136" stroke="black" stroke-width="3" stroke-linecap="square"/>
<circle cx="177.75" cy="101.5" r="6.5" fill="black"/>
<circle cx="128.75" cy="101.5" r="6.5" fill="black"/>
<path d="M80.0174 190L28.25 137H123.483L175.25 190H80.0174Z" fill="white"/>
<path d="M175.25 190H80.0174C64.2267 173.833 31.7663 140.6 28.25 137H123.483L175.25 190ZM175.25 190H240.75" stroke="black" stroke-width="3" stroke-linecap="square"/>
<path d="M65.25 65.7368L73.75 44L82.25 65.7368L73.75 86L65.25 65.7368Z" fill="white"/>
<path d="M65.25 65.7368L73.75 44L82.25 65.7368L73.75 86L65.25 65.7368Z" fill="white"/>
<path d="M48.25 105.491L53.75 91L59.25 105.491L53.75 119L48.25 105.491Z" fill="white"/>
<path d="M48.25 105.491L53.75 91L59.25 105.491L53.75 119L48.25 105.491Z" fill="white"/>
<rect x="224.75" y="121.5" width="47" height="51" fill="white" stroke="black" stroke-width="3"/>
<path d="M272.75 132H285.75C290.168 132 293.75 135.582 293.75 140V147.686C293.75 149.808 292.907 151.843 291.407 153.343L283.25 161.5" stroke="black" stroke-width="3" stroke-linecap="round" stroke-linejoin="round"/>
<path d="M256.75 55L262.25 60.5C265.288 63.5376 265.288 68.4624 262.25 71.5V71.5C259.212 74.5376 259.212 79.4624 262.25 82.5V82.5C265.288 85.5376 265.288 90.4624 262.25 93.5L261.167 94.5833C258.571 97.179 258.075 101.208 259.964 104.356L264.25 111.5" stroke="white" stroke-width="3" stroke-linecap="round" stroke-linejoin="round"/>
<path d="M239.25 55L244.75 60.5C247.788 63.5376 247.788 68.4624 244.75 71.5V71.5C241.712 74.5376 241.712 79.4624 244.75 82.5V82.5C247.788 85.5376 247.788 90.4624 244.75 93.5L243.667 94.5833C241.071 97.179 240.575 101.208 242.464 104.356L246.75 111.5" stroke="white" stroke-width="3" stroke-linecap="round" stroke-linejoin="round"/>
<path d="M253.75 55L259.25 60.5C262.288 63.5376 262.288 68.4624 259.25 71.5V71.5C256.212 74.5376 256.212 79.4624 259.25 82.5V82.5C262.288 85.5376 262.288 90.4624 259.25 93.5L258.167 94.5833C255.571 97.179 255.075 101.208 256.964 104.356L261.25 111.5" stroke="black" stroke-width="3" stroke-linecap="round" stroke-linejoin="round"/>
<path d="M236.25 55L241.75 60.5C244.788 63.5376 244.788 68.4624 241.75 71.5V71.5C238.712 74.5376 238.712 79.4624 241.75 82.5V82.5C244.788 85.5376 244.788 90.4624 241.75 93.5L240.667 94.5833C238.071 97.179 237.575 101.208 239.464 104.356L243.75 111.5" stroke="black" stroke-width="3" stroke-linecap="round" stroke-linejoin="round"/>
<line x1="81.25" y1="195.5" x2="254.25" y2="195.5" stroke="white" stroke-width="3"/>
</svg>
