<svg width="130" height="43" viewBox="0 0 130 43" fill="none" xmlns="http://www.w3.org/2000/svg">
<circle cx="21.6135" cy="21.5" r="20" stroke="#0CD3FF" stroke-width="3"/>
<path d="M29.6135 21.5C29.6135 27.2691 28.5228 32.4188 26.8245 36.0702C25.0688 39.8451 22.9433 41.5 21.1135 41.5C19.2837 41.5 17.1583 39.8451 15.4025 36.0702C13.7042 32.4188 12.6135 27.2691 12.6135 21.5C12.6135 15.731 13.7042 10.5812 15.4025 6.9298C17.1583 3.15495 19.2837 1.5 21.1135 1.5C22.9433 1.5 25.0688 3.15495 26.8245 6.9298C28.5228 10.5812 29.6135 15.731 29.6135 21.5Z" stroke="#0CD3FF" stroke-width="3"/>
<path d="M5.11353 32C7.74733 30.6667 13.1278 28 21.6135 28C30.0992 28 35.3248 30.6667 38.1135 32" stroke="#0CD3FF" stroke-width="3" stroke-linecap="square"/>
<path d="M5.11353 11C7.74733 12.3333 13.1278 15 21.6135 15C30.0992 15 35.3248 12.3333 38.1135 11" stroke="#0CD3FF" stroke-width="3" stroke-linecap="square"/>
<circle cx="64.6135" cy="21.5" r="20" stroke="#2ADEA7" stroke-width="3"/>
<path d="M55.4322 24.8002L55.3387 24.8063V24.9C55.3387 27.426 56.1935 29.4504 57.6588 30.902C59.1047 32.3344 61.1376 33.2019 63.5107 33.4504V36.672V36.772H63.6107H65.6267H65.7267V36.672V33.4917C67.9515 33.387 69.8736 32.7456 71.2473 31.6286C72.6432 30.4935 73.4667 28.872 73.4667 26.844C73.4667 25.0051 72.9378 23.6355 71.8787 22.6271C70.8235 21.6223 69.2534 20.9873 67.1937 20.5898L67.193 20.5897L65.7267 20.3169V12.5667C67.0187 12.8457 68.0534 13.4642 68.784 14.3827C69.5374 15.33 69.9733 16.604 70.0268 18.1714L70.0302 18.2731L70.1319 18.2678L72.9039 18.1238L72.9995 18.1189L72.9987 18.0232C72.9806 15.7176 72.2993 13.8203 71.0378 12.4308C69.7925 11.0591 67.99 10.1913 65.7267 9.90742V6.75598V6.65598H65.6267H63.6107H63.5107V6.75598V9.79136C61.1985 9.87934 59.3273 10.5567 58.0277 11.6984C56.7084 12.8573 55.9867 14.4876 55.9867 16.44C55.9867 18.2277 56.5713 19.6129 57.5818 20.628C58.5902 21.641 60.0148 22.2776 61.6835 22.5861C61.6838 22.5862 61.6842 22.5862 61.6846 22.5863L63.5107 22.9654V30.8307C62.0492 30.5852 60.7992 29.9531 59.8912 28.9547C58.9598 27.9306 58.3819 26.5141 58.3106 24.716L58.3066 24.6135L58.2042 24.6202L55.4322 24.8002ZM66.1471 23.45L66.1473 23.4501C67.5999 23.737 68.6415 24.1379 69.3194 24.7151C69.9913 25.2873 70.3147 26.0407 70.3147 27.06C70.3147 28.1997 69.8514 29.1254 69.0374 29.7906C68.2414 30.4411 67.1045 30.8465 65.7267 30.9489V23.366L66.1471 23.45ZM60.2517 13.4465C60.9893 12.807 62.0811 12.4351 63.5107 12.3682V19.8783L63.1652 19.7985L63.1652 19.7985L63.1618 19.7978C61.8692 19.5465 60.8542 19.208 60.1628 18.6611C59.4784 18.1196 59.1027 17.367 59.1027 16.26C59.1027 15.0412 59.4992 14.0991 60.2517 13.4465Z" fill="#2ADEA7" stroke="#2ADEA7" stroke-width="0.2"/>
<path d="M116.093 22.2957L118.314 21L116.093 19.7043L104.093 12.7043L101.837 11.3884L101.837 14L101.837 28L101.837 30.6116L104.093 29.2957L116.093 22.2957Z" stroke="#FF58D0" stroke-width="3"/>
<circle cx="107.614" cy="21.5" r="20" stroke="#FF58D0" stroke-width="3"/>
</svg>
