<svg width="320" height="221" viewBox="0 0 320 221" fill="none" xmlns="http://www.w3.org/2000/svg">
<rect x="48" y="50.5075" width="216" height="121" fill="#2ADEA7"/>
<line x1="95.5" y1="115.329" x2="95.5" y2="157.686" stroke="white" stroke-width="3"/>
<line x1="106.5" y1="108.498" x2="106.5" y2="165.884" stroke="white" stroke-width="3"/>
<line x1="117.5" y1="96.2006" x2="117.5" y2="178.181" stroke="white" stroke-width="3"/>
<line x1="128.5" y1="96.2006" x2="128.5" y2="178.181" stroke="white" stroke-width="3"/>
<line x1="139.5" y1="89.3689" x2="139.5" y2="185.012" stroke="white" stroke-width="3"/>
<line x1="150.5" y1="82.5372" x2="150.5" y2="191.844" stroke="white" stroke-width="3"/>
<line x1="161.5" y1="96.2006" x2="161.5" y2="176.814" stroke="white" stroke-width="3"/>
<line x1="172.5" y1="67.5075" x2="172.5" y2="205.508" stroke="white" stroke-width="3"/>
<line x1="183.5" y1="92.1016" x2="183.5" y2="182.28" stroke="white" stroke-width="3"/>
<line x1="194.5" y1="92.1016" x2="194.5" y2="182.28" stroke="white" stroke-width="3"/>
<line x1="205.5" y1="108.498" x2="205.5" y2="165.884" stroke="white" stroke-width="3"/>
<line x1="216.5" y1="116.696" x2="216.5" y2="157.686" stroke="white" stroke-width="3"/>
<line x1="227.5" y1="126.26" x2="227.5" y2="146.755" stroke="white" stroke-width="3"/>
<line x1="238.5" y1="128.993" x2="238.5" y2="144.022" stroke="white" stroke-width="3"/>
<line x1="86" y1="138.008" x2="39" y2="138.008" stroke="white" stroke-width="3"/>
<line x1="292" y1="138.008" x2="245" y2="138.008" stroke="white" stroke-width="3"/>
<line x1="84.5" y1="106.329" x2="84.5" y2="148.686" stroke="black" stroke-width="3"/>
<line x1="95.5" y1="99.4976" x2="95.5" y2="156.884" stroke="black" stroke-width="3"/>
<line x1="106.5" y1="87.2006" x2="106.5" y2="169.181" stroke="black" stroke-width="3"/>
<line x1="117.5" y1="87.2006" x2="117.5" y2="169.181" stroke="black" stroke-width="3"/>
<line x1="128.5" y1="80.3689" x2="128.5" y2="176.012" stroke="black" stroke-width="3"/>
<line x1="139.5" y1="73.5372" x2="139.5" y2="182.844" stroke="black" stroke-width="3"/>
<line x1="150.5" y1="87.2006" x2="150.5" y2="167.814" stroke="black" stroke-width="3"/>
<line x1="161.5" y1="58.5075" x2="161.5" y2="196.508" stroke="black" stroke-width="3"/>
<line x1="172.5" y1="83.1016" x2="172.5" y2="173.28" stroke="black" stroke-width="3"/>
<line x1="183.5" y1="83.1016" x2="183.5" y2="173.28" stroke="black" stroke-width="3"/>
<line x1="194.5" y1="99.4976" x2="194.5" y2="156.884" stroke="black" stroke-width="3"/>
<line x1="205.5" y1="107.696" x2="205.5" y2="148.686" stroke="black" stroke-width="3"/>
<line x1="216.5" y1="117.26" x2="216.5" y2="137.755" stroke="black" stroke-width="3"/>
<line x1="227.5" y1="119.993" x2="227.5" y2="135.022" stroke="black" stroke-width="3"/>
<line x1="75" y1="129.008" x2="28" y2="129.008" stroke="black" stroke-width="3"/>
<line x1="281" y1="129.008" x2="234" y2="129.008" stroke="black" stroke-width="3"/>
</svg>
