<svg width="97" height="40" viewBox="0 0 97 40" fill="none" xmlns="http://www.w3.org/2000/svg">
<path d="M89.4227 38.3412V2.00347C89.4227 0.254172 91.1986 0.015625 92.9214 0.015625C94.6706 0.015625 96.4199 0.254172 96.4199 2.00347V38.3412C96.4199 39.6399 94.6706 39.9845 92.9214 39.9845C91.172 39.9845 89.4227 39.6399 89.4227 38.3412Z" fill="black"/>
<path d="M78.1052 8.49711C80.5702 8.49711 82.5581 6.61526 82.5581 4.28288C82.5581 1.95047 80.5702 0.0686535 78.1052 0.0686535C75.6404 0.0686535 73.6525 1.95047 73.6525 4.28288C73.679 6.61526 75.6669 8.49711 78.1052 8.49711Z" fill="black"/>
<path d="M74.7391 14.3281V38.3412C74.7391 39.6399 76.4884 39.9845 78.2377 39.9845C79.9869 39.9845 81.7363 39.6399 81.7363 38.3412V14.3281C81.7363 12.5788 79.9869 12.3402 78.2377 12.3402C76.515 12.3402 74.7391 12.5788 74.7391 14.3281Z" fill="black"/>
<path fill-rule="evenodd" clip-rule="evenodd" d="M39.1966 25.6985C39.1966 18.1447 45.2661 11.4126 54.0392 11.4126C62.7591 11.4126 68.9612 18.0122 68.9612 25.6455C68.9612 33.8619 62.07 39.9579 54.1186 39.9579C45.2927 39.9579 39.1966 33.2258 39.1966 25.6985ZM54.0126 34.1535C58.6775 34.1535 62.1761 30.3368 62.1761 25.6455C62.1761 20.9542 58.6775 17.2436 54.0126 17.2436C49.3478 17.2436 45.9022 21.0072 45.9022 25.725C45.9287 30.3898 49.3478 34.1535 54.0126 34.1535Z" fill="black"/>
<path d="M20.6434 39.9579C26.607 39.9579 35.1944 36.2738 35.1944 32.6162C35.1944 30.8934 33.0475 28.0044 30.6621 29.0381C30.3185 29.1769 29.9436 29.505 29.4701 29.9195C28.0443 31.1679 25.7238 33.1993 20.67 33.1993C15.7932 33.1993 11.2343 30.6284 8.92839 26.5202C7.84181 24.5853 7.31172 22.412 7.31172 20.2386C7.31172 17.6941 8.02726 15.1232 9.48501 12.9233C10.6248 11.174 12.7715 8.36455 16.6943 7.19835C18.6025 6.61526 20.2459 6.37671 21.6506 6.37671C26.0503 6.37671 28.1178 8.68259 28.1178 10.4319C28.1178 11.3595 27.5346 12.1017 26.4214 12.2607C25.7387 12.3582 25.3352 12.1767 24.9907 12.0216C24.7734 11.9238 24.5797 11.8366 24.3541 11.8366C22.9758 11.8366 21.0675 14.222 21.0675 16.2629C21.0675 17.7737 22.1277 19.0989 25.2817 19.0989C32.1729 19.0989 34.9824 14.222 34.9824 10.7765C34.9824 5.7671 29.7875 0.0421231 21.5446 0.0421231C18.6025 0.0421231 16.0052 0.731234 14.5474 1.20833C8.79587 3.09014 5.50933 6.61526 3.78654 9.23918C1.61324 12.5258 0.5 16.3954 0.5 20.2386C0.5 23.5516 1.32167 26.8647 2.96487 29.7802C6.46352 36.0618 13.3282 39.9579 20.6434 39.9579Z" fill="black"/>
</svg>
