<svg width="162" height="23" viewBox="0 0 162 23" fill="none" xmlns="http://www.w3.org/2000/svg">
<path d="M32.2661 11.7863C32.2661 10.4399 32.5407 9.24416 33.0899 8.19896C33.6568 7.15376 34.4362 6.34771 35.4283 5.78083C36.4381 5.19622 37.5807 4.90392 38.8562 4.90392C40.114 4.90392 41.2212 5.17851 42.1778 5.72768C43.1344 6.27685 43.8785 7.05632 44.4099 8.06609C44.9414 9.07586 45.2071 10.2451 45.2071 11.5737V12.7695H35.2688C35.322 13.7793 35.694 14.6119 36.3849 15.2673C37.0935 15.9228 37.9704 16.2505 39.0156 16.2505C39.9191 16.2505 40.6366 16.0468 41.168 15.6394C41.7172 15.2319 42.1512 14.6916 42.4701 14.0184L44.8882 15.3205C44.3568 16.2771 43.6305 17.092 42.7093 17.7652C41.8058 18.4384 40.5569 18.775 38.9625 18.775C37.6516 18.775 36.4823 18.4827 35.4549 17.8981C34.4451 17.2957 33.6568 16.472 33.0899 15.4268C32.5407 14.3639 32.2661 13.1504 32.2661 11.7863ZM42.2309 10.5108C42.1424 9.57189 41.7969 8.82785 41.1946 8.27868C40.5923 7.71179 39.804 7.42834 38.8296 7.42834C37.8376 7.42834 37.0315 7.71179 36.4115 8.27868C35.7914 8.82785 35.4194 9.57189 35.2954 10.5108H42.2309Z" fill="white"/>
<path d="M57.4552 16.5428H57.1894C56.2151 18.0309 54.7181 18.775 52.6986 18.775C51.618 18.775 50.6171 18.4915 49.6959 17.9246C48.7924 17.3577 48.0661 16.5517 47.5169 15.5065C46.9677 14.4436 46.6931 13.2212 46.6931 11.8394C46.6931 10.4577 46.9677 9.24416 47.5169 8.19896C48.0661 7.15376 48.7924 6.34771 49.6959 5.78083C50.6171 5.21394 51.618 4.93049 52.6986 4.93049C54.7181 4.93049 56.2328 5.69225 57.2426 7.21576H57.5083V5.30251H60.3782V22.9882H57.4552V16.5428ZM53.5489 16.2505C54.7181 16.2505 55.6659 15.8608 56.3922 15.0813C57.1363 14.2842 57.5083 13.2035 57.5083 11.8394C57.5083 10.4754 57.1363 9.4036 56.3922 8.62412C55.6659 7.82694 54.7181 7.42834 53.5489 7.42834C52.3797 7.42834 51.432 7.82694 50.7056 8.62412C49.9793 9.4036 49.6161 10.4754 49.6161 11.8394C49.6161 13.2035 49.9793 14.2842 50.7056 15.0813C51.432 15.8608 52.3797 16.2505 53.5489 16.2505Z" fill="white"/>
<path d="M72.3393 16.3568H72.0735C71.3295 17.8626 69.9123 18.6155 67.8219 18.6155C66.8298 18.6155 65.9441 18.3941 65.1646 17.9512C64.3851 17.4906 63.7739 16.8529 63.3311 16.038C62.9059 15.2053 62.6933 14.2487 62.6933 13.1681V5.30251H65.6163V13.0087C65.6163 14.0716 65.882 14.8776 66.4135 15.4268C66.945 15.9582 67.7067 16.224 68.6988 16.224C69.7971 16.224 70.6652 15.8608 71.3029 15.1345C71.9584 14.3904 72.2861 13.3541 72.2861 12.0255V5.30251H75.1826V18.4029H72.3393V16.3568Z" fill="white"/>
<path d="M81.1017 18.4029H78.2052V5.30251H81.1017V18.4029Z" fill="white"/>
<path d="M87.038 18.4029H84.1416V0.53125H87.038V18.4029Z" fill="white"/>
<path d="M92.9744 18.4029H90.0779V5.30251H92.9744V18.4029Z" fill="white"/>
<path d="M98.9107 7.13604H99.1764C100.151 5.66568 101.648 4.93049 103.667 4.93049C104.748 4.93049 105.74 5.21394 106.643 5.78083C107.565 6.34771 108.3 7.15376 108.849 8.19896C109.398 9.24416 109.673 10.4577 109.673 11.8394C109.673 13.2212 109.398 14.4436 108.849 15.5065C108.3 16.5517 107.565 17.3577 106.643 17.9246C105.74 18.4915 104.748 18.775 103.667 18.775C101.648 18.775 100.133 18.0044 99.1233 16.4631H98.8576V18.4029H96.0142V0.53125H98.9107V7.13604ZM102.817 7.42834C101.665 7.42834 100.718 7.82694 99.9736 8.62412C99.2473 9.42131 98.8841 10.4931 98.8841 11.8394C98.8841 13.1858 99.2473 14.2576 99.9736 15.0548C100.718 15.852 101.665 16.2505 102.817 16.2505C103.986 16.2505 104.934 15.8608 105.66 15.0813C106.387 14.2842 106.75 13.2035 106.75 11.8394C106.75 10.4754 106.387 9.4036 105.66 8.62412C104.934 7.82694 103.986 7.42834 102.817 7.42834Z" fill="white"/>
<path d="M114.999 7.10947C115.264 6.45401 115.663 5.98455 116.194 5.70111C116.726 5.39995 117.425 5.24937 118.294 5.24937H119.808V7.72065H117.789C116.867 7.72065 116.132 7.96866 115.583 8.46469C115.052 8.96071 114.786 9.68704 114.786 10.6437V18.4029H111.889V5.30251H114.733V7.10947H114.999Z" fill="white"/>
<path d="M124.381 18.4029H121.485V5.30251H124.381V18.4029Z" fill="white"/>
<path d="M137.067 16.3568H136.801C136.057 17.8626 134.64 18.6155 132.55 18.6155C131.558 18.6155 130.672 18.3941 129.892 17.9512C129.113 17.4906 128.502 16.8529 128.059 16.038C127.634 15.2053 127.421 14.2487 127.421 13.1681V5.30251H130.344V13.0087C130.344 14.0716 130.61 14.8776 131.141 15.4268C131.673 15.9582 132.435 16.224 133.427 16.224C134.525 16.224 135.393 15.8608 136.031 15.1345C136.686 14.3904 137.014 13.3541 137.014 12.0255V5.30251H139.91V18.4029H137.067V16.3568Z" fill="white"/>
<path d="M145.776 6.95003H146.042C146.698 5.69225 147.884 5.06336 149.603 5.06336C151.392 5.06336 152.623 5.78968 153.296 7.24233H153.562C153.934 6.55144 154.421 6.01998 155.024 5.64796C155.626 5.25823 156.423 5.06336 157.415 5.06336C158.708 5.06336 159.763 5.47081 160.577 6.28571C161.41 7.0829 161.826 8.21667 161.826 9.68704V18.4029H158.903V9.84648C158.903 9.08472 158.691 8.50012 158.266 8.09267C157.84 7.6675 157.256 7.45492 156.512 7.45492C155.679 7.45492 155.024 7.72065 154.545 8.2521C154.067 8.78356 153.828 9.54532 153.828 10.5374V18.4029H150.905V9.84648C150.905 9.08472 150.692 8.50012 150.267 8.09267C149.86 7.6675 149.275 7.45492 148.513 7.45492C147.681 7.45492 147.025 7.72065 146.547 8.2521C146.069 8.78356 145.829 9.54532 145.829 10.5374V18.4029H142.933V5.30251H145.776V6.95003Z" fill="white"/>
<path d="M78.2396 0.580453H81.103V3.14305H78.2396V0.580453Z" fill="white"/>
<path d="M90.0434 0.580453H92.9068V3.14305H90.0434V0.580453Z" fill="white"/>
<path d="M121.52 0.580453H124.384V3.14305H121.52V0.580453Z" fill="white"/>
<path fill-rule="evenodd" clip-rule="evenodd" d="M0.826172 0.531378H23.2831V14.0055H0.826172V0.531378ZM5.31756 9.51416H18.7917V5.02277H5.31756V9.51416Z" fill="white"/>
<path d="M23.2831 18.4969H0.826172V22.9883H23.2831V18.4969Z" fill="white"/>
</svg>
