<svg width="231" height="47" viewBox="0 0 231 47" fill="none" xmlns="http://www.w3.org/2000/svg">
<path d="M46.6167 14.915H25.61C25.4567 15.7583 25.3033 16.64 25.2267 17.4833H31.3217C31.705 17.4833 32.0117 17.79 32.0883 18.1733C32.2417 19.8217 32.395 21.6233 32.395 23.4633C32.395 35.155 28.3317 43.3583 24.7283 43.3583C21.0483 43.3583 16.985 35.155 16.985 23.4633C16.985 11.6183 20.8183 -1.72166 35.73 6.44334V3.56834C32.3567 1.92 28.6 1 24.7667 1C11.695 1 1 11.0817 1 23.4633C1 35.8833 11.6567 45.9267 24.7667 45.9267C37.8383 45.9267 48.5333 35.845 48.5333 23.4633C48.4183 20.4733 47.805 17.56 46.6167 14.915ZM20.3583 4.37334C17.79 6.63501 16.1417 10.315 15.26 14.5317C15.1833 14.7617 15.03 14.915 14.8 14.915H6.32833C6.02167 14.915 5.86833 14.6083 6.02167 14.3783C8.85833 9.39501 13.8417 5.40834 20.205 3.91334C20.435 3.83667 20.5883 4.14334 20.3583 4.37334ZM5.14 17.4833H14.1483C14.455 17.4833 14.685 17.7133 14.6083 18.02C14.3783 19.8217 14.3017 21.6233 14.3017 23.4633C14.3017 25.1883 14.3783 26.9133 14.5317 28.5233C14.5317 28.83 14.3017 29.06 13.995 29.06H4.98667C4.68 29.06 4.37333 28.83 4.22 28.5233C3.76 26.875 3.53 25.15 3.53 23.4633C3.53 21.585 3.83667 19.7833 4.37333 18.02C4.52667 17.7133 4.75667 17.4833 5.14 17.4833ZM6.25167 31.705H14.6467C14.8767 31.705 15.1067 31.8583 15.1067 32.0883C15.8733 36.1517 17.1383 39.64 18.7867 42.055C18.94 42.2083 18.71 42.515 18.48 42.4383C12.9217 40.8667 8.28333 37.225 5.715 32.4717C5.6 32.165 5.86833 31.705 6.25167 31.705ZM30.4783 42.1317C32.1267 39.7167 33.4683 36.19 34.235 32.165C34.3117 31.935 34.465 31.7817 34.695 31.7817H43.09C43.4733 31.7817 43.7033 32.165 43.55 32.5483C40.9817 37.225 36.3433 40.9817 30.785 42.515C30.555 42.63 30.4017 42.285 30.4783 42.1317ZM44.4317 29.1367H35.27C34.9633 29.1367 34.7333 28.9067 34.7333 28.6C34.8867 26.9517 34.9633 25.2267 34.9633 23.54C34.9633 21.6617 34.8867 19.86 34.6567 18.1733C34.6567 17.8667 34.8867 17.6367 35.1933 17.6367H44.2783C44.585 17.6367 44.8917 17.8667 44.9683 18.1733C45.505 19.8983 45.735 21.7767 45.735 23.6167C45.735 25.4183 45.505 27.0667 45.045 28.6767C45.045 28.8683 44.7383 29.1367 44.4317 29.1367Z" fill="white" stroke="white" stroke-width="0.641892"/>
<path d="M65.8218 12.0015C65.8218 17.0231 69.3485 19.2465 74.2935 19.2465C77.7435 19.2465 79.5068 18.1731 80.3118 17.6748V10.8515H74.1402V13.5348H77.0918V15.7965C76.4018 15.9881 75.5585 16.1032 74.5618 16.1032C71.4185 16.1032 69.5018 14.6465 69.5018 11.8481C69.5018 9.08815 71.7252 7.66982 74.6768 7.66982C77.0535 7.66982 78.2418 8.39815 79.0852 8.97315L80.3885 6.25148C79.4302 5.59981 77.8968 4.60315 74.5235 4.60315C69.7701 4.60315 65.8218 7.05648 65.8218 12.0015ZM100.782 19.0165L97.1785 14.0331C99.2102 13.2665 100.245 11.8098 100.245 9.70148C100.245 6.51981 98.0985 4.79482 93.4602 4.79482H86.9435V18.9782H90.5085V14.5315H93.4602L96.3735 18.9782H100.782V19.0165ZM96.5652 9.81647C96.5652 11.0431 95.5302 11.7331 93.2302 11.7331H90.5468V7.86148H93.3452C95.6835 7.86148 96.5652 8.51314 96.5652 9.81647ZM115.578 4.83314H111.668L105.42 19.0165H109.253L110.633 15.6048H116.537L117.917 19.0165H121.827L115.578 4.83314ZM115.578 13.1515H111.553L113.547 8.20648H113.585L115.578 13.1515ZM141.837 4.83314H138.234V13.5348H138.195L130.95 4.83314H127.347V19.0165H130.912V10.3148H130.95L138.195 19.0165H141.799V4.83314H141.837ZM162.46 4.83314H147.434V7.86148H153.184V18.9782H156.787V7.86148H162.499V4.83314H162.46ZM189.37 4.83314H178.024V19.0165H181.589V14.5698H188.642V11.5032H181.589V7.89981H189.37V4.83314ZM210.952 11.9248C210.952 7.47814 207.924 4.60315 202.672 4.60315C197.459 4.60315 194.392 7.51647 194.392 11.9248C194.392 16.3331 197.42 19.2465 202.672 19.2465C207.885 19.2465 210.952 16.3715 210.952 11.9248ZM207.272 11.8865C207.272 14.4548 205.509 16.1032 202.71 16.1032C199.835 16.1032 198.072 14.4548 198.072 11.8865C198.072 9.35648 199.835 7.70814 202.672 7.70814C205.509 7.70814 207.272 9.31815 207.272 11.8865ZM231 19.0165L227.397 14.0331C229.429 13.2665 230.464 11.8098 230.464 9.70148C230.464 6.51981 228.317 4.79482 223.679 4.79482H217.162V18.9782H220.727V14.5315H223.679L226.592 18.9782H231V19.0165ZM226.745 9.81647C226.745 11.0431 225.71 11.7331 223.41 11.7331H220.727V7.86148H223.525C225.864 7.86148 226.745 8.51314 226.745 9.81647ZM80.3885 29.2131H65.3618V32.2415H71.1118V43.3581H74.7151V32.2415H80.4268V29.2131H80.3885ZM100.513 29.2131H96.9102V34.6565H89.5885V29.2131H86.0235V43.3965H89.5885V37.7232H96.9102V43.3965H100.513V29.2131ZM118.645 29.2131H107.337V43.3965H118.837V40.3298H110.94V37.5698H117.917V34.7715H110.94V32.2415H118.645V29.2131ZM156.979 29.2131H153.184L150.884 38.6048H150.845L147.319 29.2131H143.677L140.15 38.6048H140.112L137.812 29.2131H134.017L137.965 43.3965H141.645L145.479 33.5831H145.517L149.312 43.3965H152.992L156.979 29.2131ZM173.96 29.2131H162.652V43.3965H174.152V40.3298H166.255V37.5698H173.232V34.7715H166.255V32.2415H173.96V29.2131ZM193.97 39.4098C193.97 37.6082 192.667 36.4198 190.904 36.0748V36.0365C192.322 35.6532 193.357 34.5415 193.357 32.8548C193.357 30.6315 191.709 29.2131 187.569 29.2131H180.515V43.3965H187.645C192.169 43.3965 193.97 41.7481 193.97 39.4098ZM189.792 33.3915C189.792 34.3115 189.064 34.8865 187.109 34.8865H184.042V32.0115H187.109C189.14 32.0115 189.792 32.5098 189.792 33.3915ZM190.367 38.9498C190.367 39.9081 189.639 40.4448 187.377 40.4448H184.042V37.4165H187.3C189.6 37.4165 190.367 37.9915 190.367 38.9498Z" fill="white"/>
</svg>
