<svg width="32" height="32" viewBox="0 0 32 32" fill="none" xmlns="http://www.w3.org/2000/svg">
<circle cx="16.1752" cy="9.51385" r="7.01211" stroke="#0CD3FF" stroke-width="1.05182"/>
<path d="M18.9799 9.51385C18.9799 11.5365 18.5974 13.3421 18.002 14.6222C17.3864 15.9457 16.6413 16.526 15.9997 16.526C15.3582 16.526 14.613 15.9457 13.9974 14.6222C13.402 13.3421 13.0196 11.5365 13.0196 9.51385C13.0196 7.49119 13.402 5.68565 13.9974 4.40546C14.613 3.08197 15.3582 2.50174 15.9997 2.50174C16.6413 2.50174 17.3864 3.08197 18.002 4.40546C18.5974 5.68565 18.9799 7.49119 18.9799 9.51385Z" stroke="#0CD3FF" stroke-width="1.05182"/>
<path d="M10.3901 13.1952C11.3136 12.7277 13.2 11.7928 16.1751 11.7928C19.1503 11.7928 20.9824 12.7277 21.9601 13.1952" stroke="#0CD3FF" stroke-width="1.05182" stroke-linecap="square"/>
<path d="M10.3901 5.83252C11.3136 6.29999 13.2 7.23494 16.1751 7.23494C19.1503 7.23494 20.9824 6.29999 21.9601 5.83252" stroke="#0CD3FF" stroke-width="1.05182" stroke-linecap="square"/>
<circle cx="8.46185" cy="22.4863" r="7.01211" stroke="#2ADEA7" stroke-width="1.05182"/>
<path d="M5.24285 23.6433L5.21006 23.6454V23.6783C5.21006 24.5639 5.50976 25.2737 6.0235 25.7826C6.53042 26.2848 7.24319 26.589 8.07521 26.6761V27.8056V27.8407H8.11027H8.81709H8.85215V27.8056V26.6906C9.63216 26.6539 10.306 26.429 10.7877 26.0374C11.2771 25.6394 11.5658 25.0709 11.5658 24.3599C11.5658 23.7151 11.3804 23.2349 11.0091 22.8814C10.6391 22.5291 10.0886 22.3065 9.36647 22.1671L9.36624 22.1671L8.85215 22.0714V19.3542C9.30513 19.452 9.66789 19.6688 9.92403 19.9909C10.1882 20.323 10.341 20.7697 10.3598 21.3192L10.361 21.3549L10.3966 21.353L11.3685 21.3025L11.402 21.3008L11.4018 21.2672C11.3954 20.4589 11.1565 19.7937 10.7142 19.3065C10.2776 18.8256 9.64567 18.5213 8.85215 18.4218V17.3169V17.2818H8.81709H8.11027H8.07521V17.3169V18.3811C7.26454 18.412 6.60848 18.6494 6.15284 19.0497C5.69027 19.4561 5.43725 20.0276 5.43725 20.7122C5.43725 21.3389 5.64222 21.8246 5.99651 22.1805C6.35004 22.5356 6.84951 22.7589 7.43456 22.867L8.07521 23V25.7576C7.56278 25.6716 7.12453 25.4499 6.80618 25.0999C6.47961 24.7408 6.277 24.2442 6.25203 23.6138L6.25061 23.5779L6.21472 23.5802L5.24285 23.6433ZM8.99954 23.1699L8.99962 23.1699C9.5089 23.2705 9.8741 23.4111 10.1118 23.6135C10.3473 23.8141 10.4607 24.0782 10.4607 24.4356C10.4607 24.8352 10.2983 25.1597 10.0129 25.3929C9.73381 25.621 9.3352 25.7632 8.85215 25.7991V23.1404L8.99954 23.1699ZM6.93259 19.6626C7.19117 19.4384 7.57396 19.308 8.07521 19.2846V21.9176L7.95407 21.8897L7.95407 21.8897L7.95287 21.8894C7.49969 21.8013 7.1438 21.6827 6.90139 21.4909C6.66146 21.3011 6.52974 21.0372 6.52974 20.649C6.52974 20.2217 6.66873 19.8914 6.93259 19.6626Z" fill="#2ADEA7" stroke="#2ADEA7" stroke-width="0.0701211"/>
<path d="M26.5111 22.7652L27.2898 22.3109L26.5111 21.8567L22.3038 19.4024L21.5129 18.9411L21.5129 19.8567L21.5129 24.7652L21.5129 25.6808L22.3038 25.2194L26.5111 22.7652Z" stroke="#FF58D0" stroke-width="1.05182"/>
<circle cx="23.538" cy="22.4863" r="7.01211" stroke="#FF58D0" stroke-width="1.05182"/>
</svg>
